opsz144_wght100_wdth50.ufo
<glyph name="D" format="2">
	<unicode hex="0044"/>
	<advance width="1641"/>
	<outline>
		<contour>
			<point x="82.9992675781" y="0" type="line"/>
			<point x="82.9992675781" y="98.9985351562" type="line"/>
			<point x="289.9943847656" y="137.9985351562" type="line"/>
			<point x="293.4362792969" y="759" type="line"/>
			<point x="289.9943847656" y="1349.5616699219" type="line"/>
			<point x="82.9992675781" y="1386.5616699219" type="line"/>
			<point x="82.9992675781" y="1500" type="line"/>
			<point x="765.2236328125" y="1503" type="line" smooth="yes"/>
			<point x="1144.5876464844" y="1505"/>
			<point x="1560.1254882812" y="1165"/>
			<point x="1560.1254882812" y="777" type="qcurve" smooth="yes"/>
			<point x="1560.1254882812" y="409"/>
			<point x="1122.3852539062" y="0"/>
			<point x="792.6174316406" y="0" type="qcurve" smooth="yes"/>
		</contour>
		<contour>
			<point x="469.7182617188" y="134.5778808594" type="line"/>
			<point x="501.2385253906" y="128.4165649414"/>
			<point x="690.8010253906" y="111.5778808594"/>
			<point x="795.0517578125" y="111.5778808594" type="qcurve" smooth="yes"/>
			<point x="1110.9494628906" y="111.5778808594"/>
			<point x="1365.8702589466" y="469.0036991242"/>
			<point x="1369.148610761" y="769.65" type="qcurve" smooth="yes"/>
			<point x="1369.9298922632" y="1067.9580381332"/>
			<point x="1070.0600585938" y="1384.0352783203"/>
			<point x="748.3725585938" y="1384.0352783203" type="qcurve" smooth="yes"/>
			<point x="674.2041015625" y="1384.0352783203"/>
			<point x="505.8637537802" y="1377.0965942383"/>
			<point x="470.0005197833" y="1370.3852783203" type="qcurve"/>
			<point x="466.2763671875" y="766" type="line"/>
		</contour>
	</outline>
	<anchor name="bottom" x="686" y="0"/>
	<anchor name="center" x="438" y="754"/>
	<anchor name="top" x="686" y="1500"/>
	<anchor name="liga" x="1590" y="0"/>
</glyph>
<glyph name="H" format="2">
	<unicode hex="0048"/>
	<advance width="1744"/>
	<outline>
		<contour>
			<point x="82.9992675781" y="0" type="line"/>
			<point x="82.9992675781" y="99.9985351562" type="line"/>
			<point x="289.9943847656" y="134.9985351562" type="line"/>
			<point x="293.4362792969" y="785" type="line"/>
			<point x="289.9943847656" y="1352.5616699219" type="line"/>
			<point x="82.9992675781" y="1387.9616699219" type="line"/>
			<point x="82.9992675781" y="1500" type="line"/>
			<point x="678.7133789062" y="1500" type="line"/>
			<point x="678.7133789062" y="1386.9616699219" type="line"/>
			<point x="471.7182617188" y="1352.5616699219" type="line"/>
			<point x="468.2763671875" y="785" type="line"/>
			<point x="471.7182617188" y="134.9985351562" type="line"/>
			<point x="678.7133789062" y="99.9985351562" type="line"/>
			<point x="678.7133789062" y="0" type="line"/>
		</contour>
		<contour>
			<point x="383.9958496094" y="720.162902832" type="line"/>
			<point x="383.9958496094" y="851.9984130859" type="line"/>
			<point x="870.2102050781" y="842.2889404297" type="line"/>
			<point x="1360.2219238281" y="851.9984130859" type="line"/>
			<point x="1360.2219238281" y="719.162902832" type="line"/>
			<point x="870.2102050781" y="722.162902832" type="line"/>
		</contour>
		<contour>
			<point x="1064.9027611517" y="0" type="line"/>
			<point x="1064.9027611517" y="99.9985351562" type="line"/>
			<point x="1271.8978783392" y="134.9985351562" type="line"/>
			<point x="1275.6623535156" y="789" type="line"/>
			<point x="1271.8978783392" y="1352.5616699219" type="line"/>
			<point x="1064.9027611517" y="1386.5616699219" type="line"/>
			<point x="1064.9027611517" y="1500" type="line"/>
			<point x="1660.6168724798" y="1500" type="line"/>
			<point x="1660.6168724798" y="1386.5616699219" type="line"/>
			<point x="1453.6217552923" y="1352.5616699219" type="line"/>
			<point x="1450.5024414062" y="785" type="line"/>
			<point x="1453.6217552923" y="134.9985351562" type="line"/>
			<point x="1660.6168724798" y="99.9985351562" type="line"/>
			<point x="1660.6168724798" y="0" type="line"/>
		</contour>
	</outline>
	<anchor name="bottom" x="870" y="0"/>
	<anchor name="center" x="870" y="1079"/>
	<anchor name="top" x="870" y="1500"/>
	<anchor name="tonos" x="0" y="1500"/>
	<anchor name="cy_descender" x="1658" y="100"/>
</glyph>
<glyph name="I" format="2">
	<unicode hex="0049"/>
	<advance width="791"/>
	<outline>
		<contour>
			<point x="95.4669189453" y="0" type="line"/>
			<point x="95.4669189453" y="99.9985351562" type="line"/>
			<point x="303.9233398438" y="134.9985351562" type="line"/>
			<point x="307.365234375" y="754" type="line"/>
			<point x="303.9233398438" y="1352.1116699219" type="line"/>
			<point x="95.4669189453" y="1386.1116699219" type="line"/>
			<point x="95.4669189453" y="1500" type="line"/>
			<point x="695.1036376953" y="1500" type="line"/>
			<point x="695.1036376953" y="1386.1116699219" type="line"/>
			<point x="486.6472167969" y="1352.1116699219" type="line"/>
			<point x="483.2053222656" y="754" type="line"/>
			<point x="486.6472167969" y="133.9985351562" type="line"/>
			<point x="695.1036376953" y="99.9985351562" type="line"/>
			<point x="695.1036376953" y="0" type="line"/>
		</contour>
	</outline>
	<anchor name="bottom" x="390" y="0"/>
	<anchor name="ogonek" x="526" y="0"/>
	<anchor name="top" x="390" y="1500"/>
	<anchor name="tonos" x="0" y="1500"/>
	<anchor name="yu_dash" x="380" y="755"/>
	<anchor name="_Yeru_I" x="82" y="0"/>
	<anchor name="liga" x="780" y="0"/>
</glyph>
<glyph name="J" format="2">
	<unicode hex="004A"/>
	<advance width="828"/>
	<outline>
		<contour>
			<point x="77.8811035156" y="-220.8999633789" type="qcurve"/>
			<point x="84.8811035156" y="-91.4017944336" type="line"/>
			<point x="98.8444824219" y="-92.5219116211"/>
			<point x="144.3139648438" y="-92.3421020508"/>
			<point x="188.228515625" y="-89.7621459961" type="qcurve" smooth="yes"/>
			<point x="271.5637207031" y="-84.6022338867"/>
			<point x="360.9233398438" y="-42.0606079102"/>
			<point x="361.9233398438" y="139.9393920898" type="qcurve" smooth="yes"/>
			<point x="363.9233398438" y="674" type="line"/>
			<point x="361.9233398438" y="1351.9616699219" type="line"/>
			<point x="123.6588745117" y="1385.9616699219" type="line"/>
			<point x="123.6588745117" y="1500" type="line"/>
			<point x="766.9700927734" y="1500" type="line"/>
			<point x="670" y="1384" type="line"/>
			<point x="480" y="1350" type="line"/>
			<point x="536.7634277344" y="674" type="line"/>
			<point x="536.4147949219" y="83.9393920898" type="line" smooth="yes"/>
			<point x="534.4139404297" y="-49.0606079102"/>
			<point x="371.0307617188" y="-224.4003295898"/>
			<point x="230.6169433594" y="-224.4003295898" type="qcurve" smooth="yes"/>
			<point x="165.6145019531" y="-224.4003295898"/>
			<point x="98.1181640625" y="-220.3001098633"/>
		</contour>
	</outline>
	<anchor name="bottom" x="376" y="-208"/>
	<anchor name="top" x="376" y="1500"/>
	<anchor name="_liga" x="0" y="0"/>
</glyph>
<glyph name="K" format="2">
	<unicode hex="004B"/>
	<advance width="1228"/>
	<outline>
		<contour>
			<point x="82.9992675781" y="0" type="line"/>
			<point x="82.9992675781" y="99.9985351562" type="line"/>
			<point x="289.9943847656" y="134.9985351562" type="line"/>
			<point x="291.9943847656" y="754" type="line"/>
			<point x="289.9943847656" y="1351.9616699219" type="line"/>
			<point x="82.9992675781" y="1385.9616699219" type="line"/>
			<point x="82.9992675781" y="1500" type="line"/>
			<point x="675.2520751953" y="1500" type="line"/>
			<point x="675.2520751953" y="1385.9616699219" type="line"/>
			<point x="470.7182617188" y="1351.9616699219" type="line"/>
			<point x="467.2763671875" y="754" type="line"/>
			<point x="470.7182617188" y="134.9985351562" type="line"/>
			<point x="678.7133789062" y="99.9985351562" type="line"/>
			<point x="678.7133789062" y="0" type="line"/>
		</contour>
		<contour>
			<point x="349.1231079102" y="444.7137451172" type="line"/>
			<point x="347.1231079102" y="552.0104370117" type="line"/>
			<point x="979.6876220703" y="1342.9616699219" type="line"/>
			<point x="789.8064575195" y="1385.9616699219" type="line"/>
			<point x="789.8064575195" y="1500" type="line"/>
			<point x="1338.5532836914" y="1500" type="line"/>
			<point x="1338.5532836914" y="1385.9616699219" type="line"/>
			<point x="1123.9420776367" y="1341.9616699219" type="line"/>
			<point x="729.7807006836" y="890.4904174805" type="line"/>
			<point x="720.5845336914" y="873.9373168945" type="line"/>
		</contour>
		<contour>
			<point x="604.0520019531" y="840.0538330078" type="line"/>
			<point x="711.416809082" y="938.0931396484" type="line"/>
			<point x="1220.4170532227" y="133.9985351562" type="line"/>
			<point x="1428.7595214844" y="99.9985351562" type="line"/>
			<point x="1428.7595214844" y="0" type="line"/>
			<point x="843.2405395508" y="0" type="line"/>
			<point x="843.2405395508" y="99.9985351562" type="line"/>
			<point x="1017.3904418945" y="133.9985351562" type="line"/>
		</contour>
	</outline>
	<anchor name="bottom" x="812" y="0"/>
	<anchor name="top" x="770" y="1500"/>
</glyph>
<glyph name="L" format="2">
	<unicode hex="004C"/>
	<advance width="1242"/>
	<outline>
		<contour>
			<point x="82.9992675781" y="0" type="line"/>
			<point x="82.9992675781" y="99.9985351562" type="line"/>
			<point x="290.9943847656" y="137.9985351562" type="line"/>
			<point x="291.9943847656" y="754" type="line"/>
			<point x="289.9943847656" y="1351.9616699219" type="line"/>
			<point x="82.9992675781" y="1385.9616699219" type="line"/>
			<point x="82.9992675781" y="1500" type="line"/>
			<point x="717.6743774414" y="1500" type="line"/>
			<point x="717.6743774414" y="1385.9616699219" type="line"/>
			<point x="471.7182617188" y="1351.9616699219" type="line"/>
			<point x="468.2763671875" y="754" type="line"/>
			<point x="469.7182617188" y="127.7070922852" type="line"/>
			<point x="507.7182617188" y="106.7070922852" type="line"/>
			<point x="1022.486328125" y="106.7070922852" type="line"/>
			<point x="1113.486328125" y="489.3455200195" type="line"/>
			<point x="1242.1798095703" y="489.3455200195" type="line"/>
			<point x="1202.1156005859" y="0" type="line"/>
		</contour>
	</outline>
	<anchor name="bottom" x="705" y="0"/>
	<anchor name="centerright" x="928" y="750"/>
	<anchor name="top" x="632" y="1500"/>
	<anchor name="topright" x="784" y="1001"/>
	<anchor name="center" x="378" y="750"/>
	<anchor name="liga" x="1264" y="0"/>
</glyph>
<glyph name="M" format="2">
	<unicode hex="004D"/>
	<advance width="2040"/>
	<outline>
		<contour>
			<point x="79.9992675781" y="0" type="line"/>
			<point x="79.9992675781" y="99.9985351562" type="line"/>
			<point x="292.9943847656" y="150.9985351562" type="line"/>
			<point x="296.9943847656" y="746" type="line"/>
			<point x="296.9943847656" y="1350.9616699219" type="line"/>
			<point x="82.9992675781" y="1385.9616699219" type="line"/>
			<point x="82.9992675781" y="1500" type="line"/>
			<point x="554.477722168" y="1502.9373168945" type="line"/>
			<point x="806.0283813477" y="825.6989135742" type="line"/>
			<point x="980.9218139648" y="202.7886962891" type="line"/>
			<point x="1019.6395263672" y="109.1228027344" type="line"/>
			<point x="1019.6395263672" y="109.1228027344" type="line"/>
			<point x="1058.6295166016" y="202.3032226562" type="line"/>
			<point x="1230.5307006836" y="810.6508178711" type="line"/>
			<point x="1473.6301879883" y="1500" type="line"/>
			<point x="1956.7755126953" y="1500" type="line"/>
			<point x="1956.7755126953" y="1384.9616699219" type="line"/>
			<point x="1750.7803955078" y="1350.9616699219" type="line"/>
			<point x="1748.3607788086" y="751" type="line"/>
			<point x="1750.7803955078" y="134.9985351562" type="line"/>
			<point x="1956.7755126953" y="99.9985351562" type="line"/>
			<point x="1956.7755126953" y="0" type="line"/>
			<point x="1357.5612792969" y="2" type="line"/>
			<point x="1358.8201293945" y="101.9985351562" type="line"/>
			<point x="1575.9403076172" y="134.9985351562" type="line"/>
			<point x="1575.9403076172" y="750" type="line"/>
			<point x="1572.2629394531" y="1337.934387207" type="line"/>
			<point x="1575.6187744141" y="1430.934387207" type="line"/>
			<point x="1575.6187744141" y="1431.7736206055" type="line"/>
			<point x="1546.8029785156" y="1339.1948852539" type="line"/>
			<point x="1342.0088500977" y="749.4468994141" type="line"/>
			<point x="1056.6969604492" y="-22.3493652344" type="line"/>
			<point x="948.8068847656" y="-22.3493652344" type="line"/>
			<point x="658.0643310547" y="729.3569335938" type="line"/>
			<point x="448.7749023438" y="1343.3894042969" type="line"/>
			<point x="413.4098510742" y="1428.4520874023" type="line"/>
			<point x="413.4098510742" y="1427.6128540039" type="line"/>
			<point x="415.5079345703" y="1339.6128540039" type="line"/>
			<point x="412.0883178711" y="743" type="line"/>
			<point x="412.0883178711" y="150.9985351562" type="line"/>
			<point x="628.5447387695" y="99.9985351562" type="line"/>
			<point x="628.5447387695" y="0" type="line"/>
		</contour>
	</outline>
	<anchor name="bottom" x="1025" y="0"/>
	<anchor name="top" x="1058" y="1500"/>
</glyph>
<glyph name="N" format="2">
	<unicode hex="004E"/>
	<advance width="1552"/>
	<outline>
		<contour>
			<point x="93.9992675781" y="0" type="line"/>
			<point x="93.9992675781" y="99.9985351562" type="line"/>
			<point x="284.9943847656" y="151.9985351562" type="line"/>
			<point x="285.9943847656" y="752" type="line"/>
			<point x="283.9943847656" y="1351.9616699219" type="line"/>
			<point x="82.9992675781" y="1385.9616699219" type="line"/>
			<point x="82.9992675781" y="1500" type="line"/>
			<point x="470.5360717773" y="1500" type="line"/>
			<point x="859.6127929688" y="844.154296875" type="line"/>
			<point x="1148" y="412" type="line"/>
			<point x="1206" y="310" type="line"/>
			<point x="1215" y="313" type="line"/>
			<point x="1211" y="434" type="line"/>
			<point x="1175.6069946289" y="752" type="line"/>
			<point x="1176.4462280273" y="1333.9616699219" type="line"/>
			<point x="941.528503418" y="1385.9616699219" type="line"/>
			<point x="941.528503418" y="1500" type="line"/>
			<point x="1480.9550170898" y="1500" type="line"/>
			<point x="1480.9550170898" y="1385.9616699219" type="line"/>
			<point x="1279.9598999023" y="1333.9616699219" type="line"/>
			<point x="1279.9598999023" y="751" type="line"/>
			<point x="1279.9598999023" y="2" type="line"/>
			<point x="1199.7847900391" y="2" type="line"/>
			<point x="723.2395019531" y="735.9535522461" type="line"/>
			<point x="472" y="1219" type="line"/>
			<point x="414" y="1321" type="line"/>
			<point x="405" y="1318" type="line"/>
			<point x="410" y="1198" type="line"/>
			<point x="385.1854248047" y="751" type="line"/>
			<point x="391.1854248047" y="151.9985351562" type="line"/>
			<point x="625.6418457031" y="99.9985351562" type="line"/>
			<point x="625.6418457031" y="0" type="line"/>
		</contour>
	</outline>
	<anchor name="bottom" x="800" y="0"/>
	<anchor name="top" x="800" y="1500"/>
	<anchor name="engtail" x="1324" y="0"/>
	<anchor name="liga" x="1600" y="0"/>
</glyph>
<glyph name="O" format="2">
	<unicode hex="004F"/>
	<advance width="1673"/>
	<outline>
		<contour>
			<point x="80.0009765625" y="734.1857910156" type="qcurve" smooth="yes"/>
			<point x="80.0009765625" y="1082"/>
			<point x="507.5627441406" y="1519"/>
			<point x="842.4071478074" y="1519" type="qcurve" smooth="yes"/>
			<point x="1178.6382702243" y="1519"/>
			<point x="1592.828125" y="1101"/>
			<point x="1592.828125" y="758" type="qcurve" smooth="yes"/>
			<point x="1592.828125" y="432"/>
			<point x="1172.3262900075" y="-17"/>
			<point x="834.0399918094" y="-17" type="qcurve" smooth="yes"/>
			<point x="511.9033833165" y="-17"/>
			<point x="80.0009765625" y="401.5810546875"/>
		</contour>
		<contour>
			<point x="276.6552734375" y="792" type="qcurve" smooth="yes"/>
			<point x="276.6552734375" y="518.2069091797"/>
			<point x="569.4201660156" y="102.8355102539"/>
			<point x="843.896484375" y="102.8355102539" type="qcurve" smooth="yes"/>
			<point x="1112.8994140625" y="102.8355102539"/>
			<point x="1397.173828125" y="475.5698242188"/>
			<point x="1397.173828125" y="761" type="qcurve" smooth="yes"/>
			<point x="1397.173828125" y="1014.587890625"/>
			<point x="1116.0817871094" y="1390.4550170898"/>
			<point x="837.7106933594" y="1390.4550170898" type="qcurve" smooth="yes"/>
			<point x="564.7077636719" y="1390.4550170898"/>
			<point x="276.6552734375" y="1074.0090332031"/>
		</contour>
	</outline>
	<anchor name="bottom" x="832" y="0"/>
	<anchor name="center" x="832" y="750"/>
	<anchor name="ogonek" x="1064" y="0"/>
	<anchor name="top" x="832" y="1500"/>
	<anchor name="topright" x="1028" y="1500"/>
	<anchor name="tonos" x="140" y="1500"/>
	<anchor name="_yu_dash" x="169" y="755"/>
</glyph>
<glyph name="Q" format="2">
	<unicode hex="0051"/>
	<advance width="1673"/>
	<outline>
		<contour>
			<point x="80.0009765625" y="746.4951171875" type="qcurve" smooth="yes"/>
			<point x="80.0009765625" y="1081.001953125"/>
			<point x="529.8796386719" y="1519"/>
			<point x="833.4479980469" y="1519" type="qcurve" smooth="yes"/>
			<point x="1155.53515625" y="1519"/>
			<point x="1592.2739257812" y="1099"/>
			<point x="1592.2739257812" y="754" type="qcurve" smooth="yes"/>
			<point x="1592.2739257812" y="427"/>
			<point x="1151.1252441406" y="-13"/>
			<point x="849.2155761719" y="-13" type="qcurve" smooth="yes"/>
			<point x="543.6259765625" y="-13"/>
			<point x="80.0009765625" y="396.96875"/>
		</contour>
		<contour>
			<point x="274.3762207031" y="784.5048828125" type="qcurve" smooth="yes"/>
			<point x="274.3762207031" y="470.598449707"/>
			<point x="578.09765625" y="106.1260375977"/>
			<point x="846.8898925781" y="105.2873535156" type="qcurve" smooth="yes"/>
			<point x="1126.3664550781" y="104.4486694336"/>
			<point x="1401.8986816406" y="470.3355102539"/>
			<point x="1401.8986816406" y="761" type="qcurve" smooth="yes"/>
			<point x="1401.8986816406" y="1020.9064331055"/>
			<point x="1113.3510742188" y="1391.4550170898"/>
			<point x="833.6640625" y="1391.4550170898" type="qcurve" smooth="yes"/>
			<point x="557.6611328125" y="1391.4550170898"/>
			<point x="274.3762207031" y="1075.0192871094"/>
		</contour>
		<contour>
			<point x="573" y="-39" type="qcurve"/>
			<point x="1290" y="-274" type="line"/>
			<point x="1350" y="-274"/>
			<point x="1442" y="-186"/>
			<point x="1475" y="-132" type="qcurve"/>
			<point x="1565" y="-184" type="line"/>
			<point x="1515" y="-288"/>
			<point x="1371" y="-429"/>
			<point x="1239" y="-429" type="qcurve"/>
			<point x="540" y="-194" type="line"/>
			<point x="479" y="-194"/>
			<point x="363" y="-236"/>
			<point x="306" y="-288" type="qcurve"/>
			<point x="238" y="-224" type="line"/>
			<point x="299" y="-132"/>
			<point x="476" y="-39"/>
		</contour>
		<contour>
			<point x="563.4157104492" y="-87.6798706055" type="line"/>
			<point x="810.4566040039" y="151.8959350586" type="line"/>
			<point x="903.0101928711" y="76.0650024414" type="line"/>
			<point x="653.2899780273" y="-147.4884643555" type="line"/>
		</contour>
	</outline>
	<anchor name="bottom" x="832" y="0"/>
	<anchor name="top" x="823" y="1502"/>
</glyph>
<glyph name="R" format="2">
	<unicode hex="0052"/>
	<advance width="1378"/>
	<outline>
		<contour>
			<point x="85.5921630859" y="0" type="line"/>
			<point x="85.5921630859" y="98.9985351562" type="line"/>
			<point x="290.5872802734" y="132.9985351562" type="line"/>
			<point x="292.5872802734" y="761" type="line"/>
			<point x="290.5872802734" y="1353.9616699219" type="line"/>
			<point x="83.5921630859" y="1387.9616699219" type="line"/>
			<point x="83.5921630859" y="1500" type="line"/>
			<point x="752.9010009766" y="1500" type="line" smooth="yes"/>
			<point x="984.7432250977" y="1500"/>
			<point x="1200.3323974609" y="1316"/>
			<point x="1200.3323974609" y="1143" type="qcurve" smooth="yes"/>
			<point x="1200.3323974609" y="943"/>
			<point x="1011.2972412109" y="723.2263183594"/>
			<point x="794.4200439453" y="723.2263183594" type="qcurve" smooth="yes"/>
			<point x="704.5291748047" y="723.2263183594"/>
			<point x="440.7921142578" y="727.5810546875"/>
			<point x="352.2132568359" y="731.9357910156" type="qcurve"/>
			<point x="352.2132568359" y="815.8692016602" type="line"/>
			<point x="729.3951416016" y="815.8692016602" type="line" smooth="yes"/>
			<point x="926.8702392578" y="815.8692016602"/>
			<point x="1004.6314697266" y="999.7611694336"/>
			<point x="1004.6314697266" y="1140" type="qcurve" smooth="yes"/>
			<point x="1004.6314697266" y="1273.996887207"/>
			<point x="901.2552490234" y="1385.9060668945"/>
			<point x="723.7276611328" y="1385.9060668945" type="qcurve" smooth="yes"/>
			<point x="493.4273681641" y="1385.9060668945" type="line"/>
			<point x="467.4273681641" y="1360.9060668945" type="line"/>
			<point x="465.4273681641" y="761" type="line"/>
			<point x="467.4273681641" y="132.9985351562" type="line"/>
			<point x="695.1915283203" y="99.9985351562" type="line"/>
			<point x="695.1915283203" y="0" type="line"/>
		</contour>
		<contour>
			<point x="614" y="788" type="line"/>
			<point x="802" y="805" type="line"/>
			<point x="1271.0155029297" y="224" type="line" smooth="yes"/>
			<point x="1224" y="173"/>
			<point x="1415.1435546875" y="100.5903930664"/>
			<point x="1450.8962402344" y="103.9985351562" type="qcurve"/>
			<point x="1450.8962402344" y="-1" type="line"/>
			<point x="1225.0848388672" y="-1" type="line"/>
			<point x="1207.0906982422" y="22" type="line"/>
		</contour>
	</outline>
	<anchor name="bottom" x="803" y="0"/>
	<anchor name="top" x="630" y="1500"/>
</glyph>
<glyph name="S" format="2">
	<unicode hex="0053"/>
	<advance width="1068"/>
	<outline>
		<contour>
			<point x="55.1147460938" y="0" type="line"/>
			<point x="55.1147460938" y="442.9097900391" type="line"/>
			<point x="171.0988769531" y="442.9097900391" type="line"/>
			<point x="215.4626464844" y="231" type="line" smooth="yes"/>
			<point x="219.8502807617" y="220.6099853516"/>
			<point x="397.4213256836" y="88.1260375977"/>
			<point x="540.4919433594" y="88.1260375977" type="qcurve" smooth="yes"/>
			<point x="701.9670410156" y="88.1260375977"/>
			<point x="849.524597168" y="235.0716552734"/>
			<point x="849.524597168" y="345.7132568359" type="qcurve" smooth="yes"/>
			<point x="849.524597168" y="513.0264282227"/>
			<point x="653.598449707" y="655.139831543"/>
			<point x="457.6899414062" y="713.0704345703" type="qcurve" smooth="yes"/>
			<point x="311.8173828125" y="747.2284545898"/>
			<point x="110.2650756836" y="983.1273193359"/>
			<point x="110.2650756836" y="1145.7789306641" type="qcurve" smooth="yes"/>
			<point x="110.2650756836" y="1293.5367431641"/>
			<point x="314.0913085938" y="1512"/>
			<point x="457.6561889648" y="1512" type="qcurve" smooth="yes"/>
			<point x="590.3118286133" y="1512"/>
			<point x="742.5957641602" y="1451.8493652344"/>
			<point x="792.9621582031" y="1390.837890625" type="qcurve"/>
			<point x="797.0014648438" y="1499" type="line"/>
			<point x="902.658203125" y="1499" type="line"/>
			<point x="902.658203125" y="1094.2353515625" type="line"/>
			<point x="788.5286865234" y="1094.2353515625" type="line"/>
			<point x="748.0921630859" y="1304" type="line" smooth="yes"/>
			<point x="737.7235717773" y="1343.9653320312"/>
			<point x="592.270324707" y="1389.3258056641"/>
			<point x="469.7395019531" y="1389.3258056641" type="qcurve" smooth="yes"/>
			<point x="340.7385253906" y="1389.3258056641"/>
			<point x="273.6318969727" y="1265.9915161133"/>
			<point x="273.6318969727" y="1158.0497436523" type="qcurve" smooth="yes"/>
			<point x="273.6318969727" y="1076.5875854492"/>
			<point x="387.8861083984" y="928.8408813477"/>
			<point x="582.1206054688" y="879.8465576172" type="qcurve" smooth="yes"/>
			<point x="804.4364624023" y="814.557800293"/>
			<point x="1022.4946289062" y="608.6561279297"/>
			<point x="1022.4946289062" y="416.1146240234" type="qcurve" smooth="yes"/>
			<point x="1022.4946289062" y="203.3875732422"/>
			<point x="783.0748291016" y="-27"/>
			<point x="567.3687744141" y="-27" type="qcurve" smooth="yes"/>
			<point x="458.750793457" y="-27"/>
			<point x="228.8189697266" y="83"/>
			<point x="184.7347412109" y="160" type="qcurve"/>
			<point x="157.7896728516" y="0" type="line"/>
		</contour>
	</outline>
	<anchor name="bottom" x="599" y="0"/>
	<anchor name="top" x="514" y="1500"/>
</glyph>
<glyph name="T" format="2">
	<unicode hex="0054"/>
	<advance width="1217"/>
	<outline>
		<contour>
			<point x="23.8579101562" y="1058.9038696289" type="line"/>
			<point x="23.8579101562" y="1500" type="line"/>
			<point x="1193.6140136719" y="1500" type="line"/>
			<point x="1193.6140136719" y="1058.9038696289" type="line"/>
			<point x="1084.6116943359" y="1058.9038696289" type="line"/>
			<point x="1049.6146240234" y="1388.9060668945" type="line"/>
			<point x="752.8448486328" y="1388.9060668945" type="line"/>
			<point x="710.8448486328" y="1388.9060668945" type="line"/>
			<point x="707.4029541016" y="754" type="line"/>
			<point x="712.8448486328" y="132.9985351562" type="line"/>
			<point x="931.9551391602" y="98.9985351562" type="line"/>
			<point x="931.9551391602" y="0" type="line"/>
			<point x="298.3184204102" y="0" type="line"/>
			<point x="298.3184204102" y="98.9985351562" type="line"/>
			<point x="525.1209716797" y="132.9985351562" type="line"/>
			<point x="530.5628662109" y="754" type="line"/>
			<point x="529.1209716797" y="1386.9060668945" type="line"/>
			<point x="484.1209716797" y="1388.9060668945" type="line"/>
			<point x="169.8572998047" y="1388.9060668945" type="line"/>
			<point x="134.8602294922" y="1058.9038696289" type="line"/>
		</contour>
	</outline>
	<anchor name="bottom" x="644" y="0"/>
	<anchor name="center" x="644" y="750"/>
	<anchor name="top" x="644" y="1500"/>
	<anchor name="cy_descender" x="951" y="100"/>
</glyph>
<glyph name="U" format="2">
	<unicode hex="0055"/>
	<advance width="1614"/>
	<outline>
		<contour>
			<point x="69" y="1387" type="line"/>
			<point x="69" y="1500" type="line"/>
			<point x="650" y="1500" type="line"/>
			<point x="650" y="1387" type="line"/>
			<point x="448" y="1353" type="line"/>
			<point x="446" y="800" type="line"/>
			<point x="451" y="442" type="line" smooth="yes"/>
			<point x="454" y="254"/>
			<point x="616" y="104"/>
			<point x="828" y="104" type="qcurve" smooth="yes"/>
			<point x="1007" y="104"/>
			<point x="1242" y="237"/>
			<point x="1243" y="435" type="qcurve" smooth="yes"/>
			<point x="1245" y="790" type="line"/>
			<point x="1243" y="1347" type="line"/>
			<point x="1009" y="1388" type="line"/>
			<point x="1009" y="1500" type="line"/>
			<point x="1573" y="1500" type="line"/>
			<point x="1573" y="1388" type="line"/>
			<point x="1375" y="1347" type="line"/>
			<point x="1371" y="790" type="line"/>
			<point x="1374" y="378" type="line" smooth="yes"/>
			<point x="1376" y="145"/>
			<point x="1078" y="-15"/>
			<point x="824" y="-15" type="qcurve" smooth="yes"/>
			<point x="556" y="-15"/>
			<point x="266" y="161"/>
			<point x="267" y="356" type="qcurve" smooth="yes"/>
			<point x="270" y="799" type="line"/>
			<point x="269" y="1353" type="line"/>
		</contour>
	</outline>
	<anchor name="bottom" x="832" y="0"/>
	<anchor name="ogonek" x="1042" y="0"/>
	<anchor name="top" x="832" y="1500"/>
	<anchor name="topright" x="1590" y="1500"/>
</glyph>
<glyph name="V" format="2">
	<unicode hex="0056"/>
	<advance width="1461"/>
	<outline>
		<contour>
			<point x="-80.0848388672" y="1388.9616699219" type="line"/>
			<point x="-80.0848388672" y="1500" type="line"/>
			<point x="559.7122192383" y="1500" type="line"/>
			<point x="559.7122192383" y="1388.9616699219" type="line"/>
			<point x="331.5623168945" y="1360.9616699219" type="line"/>
			<point x="553.3897705078" y="820.125793457" type="line"/>
			<point x="709" y="366" type="line"/>
			<point x="746" y="252" type="line"/>
			<point x="756" y="252" type="line"/>
			<point x="793" y="366" type="line"/>
			<point x="974.5288085938" y="768.4930419922" type="line"/>
			<point x="1192.6342163086" y="1354.1940917969" type="line"/>
			<point x="950.9078369141" y="1383.1940917969" type="line"/>
			<point x="950.9078369141" y="1494.232421875" type="line"/>
			<point x="1556.9865722656" y="1500" type="line"/>
			<point x="1556.9865722656" y="1388.9616699219" type="line"/>
			<point x="1332.3753662109" y="1360.9616699219" type="line"/>
			<point x="1077.8861694336" y="698.5418701172" type="line"/>
			<point x="780.8751220703" y="-5" type="line"/>
			<point x="703.599609375" y="-5" type="line"/>
			<point x="390.1907958984" y="743.0941162109" type="line"/>
			<point x="139.0650634766" y="1358.9616699219" type="line"/>
		</contour>
	</outline>
	<anchor name="bottom" x="723" y="0"/>
	<anchor name="top" x="733" y="1500"/>
</glyph>
<glyph name="W" format="2">
	<unicode hex="0057"/>
	<advance width="1920"/>
	<outline>
		<contour>
			<point x="596.2398071289" y="-3" type="line"/>
			<point x="331.6994018555" y="753.9810180664" type="line"/>
			<point x="119.0650634766" y="1374.9616699219" type="line"/>
			<point x="-70.0848388672" y="1388.9616699219" type="line"/>
			<point x="-70.0848388672" y="1500" type="line"/>
			<point x="488.1731567383" y="1500" type="line"/>
			<point x="488.1731567383" y="1388.9616699219" type="line"/>
			<point x="314.1006469727" y="1378.9616699219" type="line"/>
			<point x="484.3662719727" y="835.8192749023" type="line"/>
			<point x="675" y="370" type="line"/>
			<point x="710" y="256" type="line"/>
			<point x="720" y="256" type="line"/>
			<point x="759" y="370" type="line"/>
			<point x="868" y="674" type="line"/>
			<point x="996" y="1038" type="line"/>
			<point x="789.1764526367" y="1376.8415527344" type="line"/>
			<point x="601.026550293" y="1386.8415527344" type="line"/>
			<point x="601.026550293" y="1500" type="line"/>
			<point x="1177.4681396484" y="1500" type="line"/>
			<point x="1177.4681396484" y="1386.8415527344" type="line"/>
			<point x="992.3182373047" y="1380.8415527344" type="line"/>
			<point x="1169.9295654297" y="767.7917480469" type="line"/>
			<point x="1397" y="370" type="line"/>
			<point x="1430" y="256" type="line"/>
			<point x="1440" y="256" type="line"/>
			<point x="1476" y="370" type="line"/>
			<point x="1629" y="803" type="line"/>
			<point x="1633.1034545898" y="1352.9616699219" type="line"/>
			<point x="1410.9157714844" y="1387.9616699219" type="line"/>
			<point x="1410.9157714844" y="1500" type="line"/>
			<point x="2008.526184082" y="1500" type="line"/>
			<point x="2008.526184082" y="1387.9616699219" type="line"/>
			<point x="1791.4536743164" y="1354.9616699219" type="line"/>
			<point x="1747" y="760" type="line"/>
			<point x="1319.8743286133" y="-3" type="line"/>
			<point x="1211.4071044922" y="-3" type="line"/>
			<point x="1096" y="750" type="line"/>
			<point x="1060" y="866" type="line"/>
			<point x="1050" y="866" type="line"/>
			<point x="1014" y="750" type="line"/>
			<point x="709.2376098633" y="-3" type="line"/>
		</contour>
	</outline>
	<anchor name="bottom" x="1051" y="0"/>
	<anchor name="top" x="1051" y="1500"/>
</glyph>
<glyph name="X" format="2">
	<unicode hex="0058"/>
	<advance width="1226"/>
	<outline>
		<contour>
			<point x="-48.3990478516" y="0" type="line"/>
			<point x="-48.3990478516" y="100.9985351562" type="line"/>
			<point x="190.7508544922" y="121.9985351562" type="line"/>
			<point x="575" y="786" type="line"/>
			<point x="249.7379760742" y="1348.9616699219" type="line"/>
			<point x="52.0493774414" y="1387.9616699219" type="line"/>
			<point x="52.0493774414" y="1500" type="line"/>
			<point x="625.0404052734" y="1500" type="line"/>
			<point x="625.0404052734" y="1387.9616699219" type="line"/>
			<point x="447.1598510742" y="1350.9616699219" type="line"/>
			<point x="601" y="1043" type="line"/>
			<point x="673" y="929" type="line"/>
			<point x="683" y="929" type="line"/>
			<point x="751" y="1043" type="line"/>
			<point x="945.1854858398" y="1356.9616699219" type="line"/>
			<point x="727.9204101562" y="1387.9616699219" type="line"/>
			<point x="727.9204101562" y="1500" type="line"/>
			<point x="1306.2124633789" y="1500" type="line"/>
			<point x="1306.2124633789" y="1387.9616699219" type="line"/>
			<point x="1087.6012573242" y="1358.9616699219" type="line"/>
			<point x="753" y="818" type="line"/>
			<point x="1192.6987304688" y="126.9985351562" type="line"/>
			<point x="1402.8486328125" y="100.9985351562" type="line"/>
			<point x="1402.8486328125" y="0" type="line"/>
			<point x="792.9544067383" y="0" type="line"/>
			<point x="792.9544067383" y="100.9985351562" type="line"/>
			<point x="991.8349609375" y="126.9985351562" type="line"/>
			<point x="727" y="562" type="line"/>
			<point x="655" y="676" type="line"/>
			<point x="645" y="676" type="line"/>
			<point x="577" y="562" type="line"/>
			<point x="334.1666259766" y="124.9985351562" type="line"/>
			<point x="575.4317016602" y="100.9985351562" type="line"/>
			<point x="575.4317016602" y="0" type="line"/>
		</contour>
	</outline>
	<anchor name="bottom" x="661" y="0"/>
	<anchor name="top" x="673" y="1500"/>
	<anchor name="cy_descender" x="1386" y="100"/>
	<anchor name="center" x="663" y="811"/>
</glyph>
<glyph name="Y" format="2">
	<unicode hex="0059"/>
	<advance width="1252"/>
	<outline>
		<contour>
			<point x="304.4604492188" y="0" type="line"/>
			<point x="304.4604492188" y="101.9985351562" type="line"/>
			<point x="550.6091308594" y="134.9985351562" type="line"/>
			<point x="554.0510253906" y="651.3256835938" type="line"/>
			<point x="341.7353515625" y="1035.4508666992" type="line"/>
			<point x="139.4689941406" y="1351.9616699219" type="line"/>
			<point x="-68.9118652344" y="1387.9616699219" type="line"/>
			<point x="-68.9118652344" y="1500" type="line"/>
			<point x="562.180847168" y="1500" type="line"/>
			<point x="562.180847168" y="1387.9616699219" type="line"/>
			<point x="352.8383789062" y="1353.9616699219" type="line"/>
			<point x="476.7669067383" y="1129.5654296875" type="line"/>
			<point x="659" y="783" type="line"/>
			<point x="669" y="783" type="line"/>
			<point x="823.6079101562" y="1106.3202514648" type="line"/>
			<point x="946.0097045898" y="1354.9616699219" type="line"/>
			<point x="721.2833251953" y="1387.9616699219" type="line"/>
			<point x="721.2833251953" y="1500" type="line"/>
			<point x="1325.5186157227" y="1500" type="line"/>
			<point x="1325.5186157227" y="1387.9616699219" type="line"/>
			<point x="1105.3687133789" y="1354.9616699219" type="line"/>
			<point x="912.8584594727" y="1023.8238525391" type="line"/>
			<point x="732.0088500977" y="673.8684692383" type="line"/>
			<point x="732.6120605469" y="134.9985351562" type="line"/>
			<point x="979.0684814453" y="101.9985351562" type="line"/>
			<point x="979.0684814453" y="0" type="line"/>
		</contour>
	</outline>
	<anchor name="bottom" x="636" y="0"/>
	<anchor name="top" x="640" y="1500"/>
	<anchor name="tonos" x="-100" y="1500"/>
	<anchor name="center" x="636" y="582"/>
</glyph>
<glyph name="a" format="2">
	<unicode hex="0061"/>
	<advance width="1080"/>
	<outline>
		<contour>
			<point x="73.2661132812" y="242.04296875" type="qcurve" smooth="yes"/>
			<point x="73.2661132812" y="387.064453125"/>
			<point x="439.0289916992" y="620.2286376953"/>
			<point x="801.0357055664" y="663.5759277344" type="qcurve"/>
			<point x="802.0357055664" y="580.1702880859" type="line"/>
			<point x="553.7717285156" y="537.7119750977"/>
			<point x="245.5201416016" y="357.1181030273"/>
			<point x="245.5201416016" y="245.9190063477" type="qcurve" smooth="yes"/>
			<point x="245.5201416016" y="178.930480957"/>
			<point x="350.5980834961" y="87.0355224609"/>
			<point x="443.0842895508" y="87.0355224609" type="qcurve" smooth="yes"/>
			<point x="515.8044433594" y="87.0355224609"/>
			<point x="693.5206298828" y="155.8347167969"/>
			<point x="721.5932006836" y="171.1595458984" type="qcurve"/>
			<point x="725.0005493164" y="772.0294189453" type="line" smooth="yes"/>
			<point x="725.7042236328" y="891.3828125"/>
			<point x="596.9299316406" y="924.8433837891"/>
			<point x="507.3666381836" y="924.8433837891" type="qcurve" smooth="yes"/>
			<point x="431.2825927734" y="924.8433837891"/>
			<point x="315.3923339844" y="902.8059692383"/>
			<point x="309.9829101562" y="921.3233032227" type="qcurve"/>
			<point x="268.9364624023" y="913.0270996094"/>
			<point x="320.8963623047" y="869.731262207"/>
			<point x="323.1411132812" y="832.694519043" type="qcurve" smooth="yes"/>
			<point x="330.5393066406" y="790.2879638672"/>
			<point x="275.028137207" y="734.3262939453"/>
			<point x="232.6958618164" y="734.3262939453" type="qcurve" smooth="yes"/>
			<point x="186.8452148438" y="734.3262939453"/>
			<point x="125.1826171875" y="790.5842895508"/>
			<point x="125.1826171875" y="860.3606567383" type="qcurve" smooth="yes"/>
			<point x="125.1826171875" y="931.5827026367"/>
			<point x="349.9384765625" y="1031.5819091797"/>
			<point x="522.3558959961" y="1031.5819091797" type="qcurve" smooth="yes"/>
			<point x="705.0122070312" y="1031.5819091797"/>
			<point x="881.4774169922" y="892.5425415039"/>
			<point x="882.4774169922" y="774.8555908203" type="qcurve" smooth="yes"/>
			<point x="887.4774169922" y="107.998046875" type="line"/>
			<point x="1034.366027832" y="80.998046875" type="line"/>
			<point x="1034.366027832" y="0" type="line"/>
			<point x="786.1467285156" y="0" type="line"/>
			<point x="737.2593383789" y="43.2579956055" type="line"/>
			<point x="721.5308227539" y="110.3325805664" type="line"/>
			<point x="688.5950317383" y="72.8215942383"/>
			<point x="460.5385742188" y="-2"/>
			<point x="340.3986816406" y="-2" type="qcurve" smooth="yes"/>
			<point x="236.8870849609" y="-2"/>
			<point x="73.2661132812" y="131.7040405273"/>
		</contour>
	</outline>
	<anchor name="bottom" x="548" y="0"/>
	<anchor name="ogonek" x="878" y="0"/>
	<anchor name="top" x="514" y="1000"/>
</glyph>
<glyph name="c" format="2">
	<unicode hex="0063"/>
	<advance width="996"/>
	<outline>
		<contour>
			<point x="63.9991455078" y="486.6483154297" type="qcurve" smooth="yes"/>
			<point x="63.9991455078" y="745.7307739258"/>
			<point x="332.7769775391" y="1024.9954833984"/>
			<point x="508.5246582031" y="1024.9954833984" type="qcurve" smooth="yes"/>
			<point x="649.2971191406" y="1024.9954833984"/>
			<point x="804.8999633789" y="976.6624755859"/>
			<point x="831.844543457" y="948.7738037109" type="qcurve"/>
			<point x="868.9033813477" y="1013.7000732422" type="line"/>
			<point x="953.3569946289" y="1013.7000732422" type="line"/>
			<point x="953.3569946289" y="743.5863037109" type="line"/>
			<point x="859.1321411133" y="743.5863037109" type="line"/>
			<point x="834.8511352539" y="835.9954833984" type="line" smooth="yes"/>
			<point x="831.6350708008" y="858.478515625"/>
			<point x="674.2805786133" y="922.8864746094"/>
			<point x="560.3558959961" y="922.8864746094" type="qcurve" smooth="yes"/>
			<point x="418.239074707" y="922.8864746094"/>
			<point x="240.3274536133" y="698.8873901367"/>
			<point x="240.3274536133" y="499.9977416992" type="qcurve" smooth="yes"/>
			<point x="240.3274536133" y="309.7936401367"/>
			<point x="405.6770629883" y="86.3686523438"/>
			<point x="573.4996948242" y="86.3686523438" type="qcurve" smooth="yes"/>
			<point x="714.0802612305" y="86.3686523438"/>
			<point x="917.2391967773" y="156.7397460938"/>
			<point x="958.9384155273" y="214" type="qcurve"/>
			<point x="1008.3241577148" y="165.7789306641" type="line"/>
			<point x="977.8560180664" y="92.2229003906"/>
			<point x="727.9331665039" y="-15"/>
			<point x="540.4564819336" y="-15" type="qcurve" smooth="yes"/>
			<point x="350.598449707" y="-15"/>
			<point x="63.9991455078" y="240.1276245117"/>
		</contour>
	</outline>
	<anchor name="bottom" x="563" y="0"/>
	<anchor name="top" x="534" y="1000"/>
</glyph>
<glyph name="d" format="2">
	<unicode hex="0064"/>
	<advance width="1266"/>
	<outline>
		<contour>
			<point x="65.1546630859" y="494.6505126953" type="qcurve" smooth="yes"/>
			<point x="65.1546630859" y="730.9472045898"/>
			<point x="357.653503418" y="1026.5819091797"/>
			<point x="592.4260864258" y="1026.5819091797" type="qcurve" smooth="yes"/>
			<point x="696.7975463867" y="1026.5819091797"/>
			<point x="926.6264038086" y="940.7543334961"/>
			<point x="931.599609375" y="916.1289672852" type="qcurve"/>
			<point x="918.2490844727" y="1403.1064453125" type="line"/>
			<point x="716.0634765625" y="1437.1064453125" type="line"/>
			<point x="716.0634765625" y="1534.0041503906" type="line"/>
			<point x="1057.6091308594" y="1537.0041503906" type="line"/>
			<point x="1075.1642456055" y="1531.0041503906" type="line"/>
			<point x="1097.459777832" y="1506.0041503906" type="line"/>
			<point x="1091.94140625" y="530.6295166016" type="line"/>
			<point x="1098.2744750977" y="107.998046875" type="line"/>
			<point x="1251.6496582031" y="80.998046875" type="line"/>
			<point x="1251.6496582031" y="0" type="line"/>
			<point x="970.1058349609" y="0" type="line"/>
			<point x="942.9541015625" y="10" type="line"/>
			<point x="925.4263305664" y="97.7592773438" type="line"/>
			<point x="889.8341674805" y="65.8218383789"/>
			<point x="692.0123291016" y="-11"/>
			<point x="575.5809936523" y="-11" type="qcurve" smooth="yes"/>
			<point x="352.7152709961" y="-11"/>
			<point x="65.1546630859" y="236.1655273438"/>
		</contour>
		<contour>
			<point x="242.7050170898" y="501.2909545898" type="qcurve" smooth="yes"/>
			<point x="242.7050170898" y="316.3925170898"/>
			<point x="407.7307128906" y="108.9234619141"/>
			<point x="580.2004394531" y="107.9975585938" type="qcurve" smooth="yes"/>
			<point x="684.8980102539" y="107.0716552734"/>
			<point x="880.1304931641" y="168.5424804688"/>
			<point x="927.871887207" y="205.4058227539" type="qcurve"/>
			<point x="938.6625366211" y="556.4375610352" type="line"/>
			<point x="940.6625366211" y="762.469909668" type="line"/>
			<point x="906.295715332" y="832.5549316406"/>
			<point x="720.5801391602" y="912.9174804688"/>
			<point x="616.1395263672" y="912.9174804688" type="qcurve" smooth="yes"/>
			<point x="452.3168945312" y="912.9174804688"/>
			<point x="242.7050170898" y="671.3456420898"/>
		</contour>
	</outline>
	<anchor name="bottom" x="604" y="0"/>
	<anchor name="center" x="876" y="1202"/>
	<anchor name="top" x="604" y="1534"/>
	<anchor name="topright" x="961" y="1000"/>
	<anchor name="liga" x="1207" y="0"/>
</glyph>
<glyph name="e" format="2">
	<unicode hex="0065"/>
	<advance width="1023"/>
	<outline>
		<contour>
			<point x="63.7102661133" y="477.0577392578" type="qcurve" smooth="yes"/>
			<point x="63.7102661133" y="748.3303222656"/>
			<point x="324.2349853516" y="1023.8488769531"/>
			<point x="554.125" y="1023.8488769531" type="qcurve" smooth="yes"/>
			<point x="736.3479003906" y="1023.8488769531"/>
			<point x="963.2188720703" y="782.7963867188"/>
			<point x="978.2129516602" y="593.6193237305" type="qcurve"/>
			<point x="978.2129516602" y="533.583190918" type="line"/>
			<point x="166" y="528" type="line"/>
			<point x="166" y="624" type="line"/>
			<point x="807.8103637695" y="616.3223266602" type="line"/>
			<point x="806.6764526367" y="737.7259521484"/>
			<point x="624.3475952148" y="913.5549316406"/>
			<point x="502.0540161133" y="913.5549316406" type="qcurve" smooth="yes"/>
			<point x="389.1723022461" y="913.5549316406"/>
			<point x="238.2236938477" y="710.3441162109"/>
			<point x="239.149597168" y="513.1312255859" type="qcurve" smooth="yes"/>
			<point x="239.0755004883" y="311.7513427734"/>
			<point x="420.4056396484" y="84.9981689453"/>
			<point x="562.9344482422" y="84.9981689453" type="qcurve" smooth="yes"/>
			<point x="688.8729858398" y="84.9981689453"/>
			<point x="865.1282348633" y="177.8879394531"/>
			<point x="898.5180053711" y="240.0367431641" type="qcurve"/>
			<point x="947.3318481445" y="190.8156738281" type="line"/>
			<point x="915.8929443359" y="104.4819335938"/>
			<point x="679.9982299805" y="-15"/>
			<point x="518.1412963867" y="-15" type="qcurve" smooth="yes"/>
			<point x="330.542175293" y="-15"/>
			<point x="63.7102661133" y="238.6733398438"/>
		</contour>
	</outline>
	<anchor name="bottom" x="578" y="0"/>
	<anchor name="ogonek" x="744" y="0"/>
	<anchor name="top" x="539" y="1000"/>
</glyph>
<glyph name="g" format="2">
	<unicode hex="0067"/>
	<advance width="985"/>
	<outline>
		<contour>
			<point x="60.9967041016" y="-230.830871582" type="qcurve" smooth="yes"/>
			<point x="60.9967041016" y="-144.6929321289"/>
			<point x="126" y="-51"/>
			<point x="233" y="2" type="qcurve"/>
			<point x="340" y="-21" type="line"/>
			<point x="240" y="-84"/>
			<point x="170.7339477539" y="-206.7897338867"/>
			<point x="170.7339477539" y="-242.9581298828" type="qcurve" smooth="yes"/>
			<point x="170.7339477539" y="-346.5268554688"/>
			<point x="353.7909545898" y="-397.7958984375"/>
			<point x="564.2600708008" y="-397.7958984375" type="qcurve" smooth="yes"/>
			<point x="723.7271118164" y="-397.7958984375"/>
			<point x="974.1006469727" y="-321.9771728516"/>
			<point x="974.1006469727" y="-219.4066162109" type="qcurve" smooth="yes"/>
			<point x="974.1006469727" y="-129.5314941406"/>
			<point x="767.3936767578" y="-79.4935913086"/>
			<point x="508.7512207031" y="-37.5050048828" type="qcurve" smooth="yes"/>
			<point x="312.8375244141" y="0.8225708008"/>
			<point x="126.0756225586" y="68.4730224609"/>
			<point x="126.0756225586" y="157.0534667969" type="qcurve" smooth="yes"/>
			<point x="126.0756225586" y="222.4504394531"/>
			<point x="262.6690063477" y="315.4417114258"/>
			<point x="350.0270996094" y="349.8080444336" type="qcurve"/>
			<point x="380.7715454102" y="291.0299682617" type="line"/>
			<point x="307.8991088867" y="258.3132324219"/>
			<point x="221.8879394531" y="203.0897827148"/>
			<point x="221.8879394531" y="158.3410644531" type="qcurve" smooth="yes"/>
			<point x="221.8879394531" y="146.5055541992"/>
			<point x="373.3954467773" y="163.5941772461"/>
			<point x="568.1259765625" y="123.5277709961" type="qcurve" smooth="yes"/>
			<point x="825.8986816406" y="83.4470825195"/>
			<point x="1044.3945922852" y="-2.8619384766"/>
			<point x="1044.3945922852" y="-153.3265991211" type="qcurve" smooth="yes"/>
			<point x="1044.3945922852" y="-303.3884277344"/>
			<point x="812.7532348633" y="-502.4235839844"/>
			<point x="516.8243408203" y="-502.4235839844" type="qcurve" smooth="yes"/>
			<point x="300.9348144531" y="-502.4235839844"/>
			<point x="60.9967041016" y="-357.964050293"/>
		</contour>
		<contour>
			<point x="76.5922851562" y="658.803527832" type="qcurve" smooth="yes"/>
			<point x="76.5922851562" y="798.74609375"/>
			<point x="311.2827148438" y="1023.8488769531"/>
			<point x="496.9786987305" y="1023.8488769531" type="qcurve" smooth="yes"/>
			<point x="680.563659668" y="1023.8488769531"/>
			<point x="923.2005615234" y="835.74609375"/>
			<point x="923.2005615234" y="694.0062255859" type="qcurve" smooth="yes"/>
			<point x="925.2005615234" y="576.1371459961"/>
			<point x="689.6801147461" y="268.8712158203"/>
			<point x="504.3827514648" y="268.8712158203" type="qcurve" smooth="yes"/>
			<point x="318.9710693359" y="268.8712158203"/>
			<point x="76.5922851562" y="563.8408203125"/>
		</contour>
		<contour>
			<point x="253.9205932617" y="676.2006225586" type="qcurve" smooth="yes"/>
			<point x="253.9205932617" y="601.7426147461"/>
			<point x="382.5119018555" y="370.83203125"/>
			<point x="513.6878051758" y="370.83203125" type="qcurve" smooth="yes"/>
			<point x="629.0990600586" y="370.83203125"/>
			<point x="747.4649047852" y="607.6712036133"/>
			<point x="747.4649047852" y="698.1292114258" type="qcurve" smooth="yes"/>
			<point x="747.4649047852" y="800.5872192383"/>
			<point x="616.7297973633" y="907.7772216797"/>
			<point x="488.553894043" y="907.7772216797" type="qcurve" smooth="yes"/>
			<point x="374.6132202148" y="907.7772216797"/>
			<point x="253.9205932617" y="762.6586303711"/>
		</contour>
		<contour>
			<point x="540" y="925" type="line"/>
			<point x="540" y="1000" type="line"/>
			<point x="1014.4453125" y="1004.8488769531" type="line"/>
			<point x="1014.4453125" y="892.7025146484" type="line"/>
		</contour>
	</outline>
	<anchor name="bottom" x="524" y="-416"/>
	<anchor name="top" x="484" y="1000"/>
</glyph>
<glyph name="h" format="2">
	<unicode hex="0068"/>
	<advance width="1238"/>
	<outline>
		<contour>
			<point x="67.0099487305" y="0" type="line"/>
			<point x="67.0099487305" y="80.998046875" type="line"/>
			<point x="213.7366333008" y="107.998046875" type="line"/>
			<point x="216.7366333008" y="538.1552124023" type="line"/>
			<point x="206.7366333008" y="1401.1064453125" type="line"/>
			<point x="96.7366333008" y="1437.1064453125" type="line"/>
			<point x="96.7366333008" y="1534.0041503906" type="line"/>
			<point x="365.0281982422" y="1534.0041503906" type="line"/>
			<point x="376.0281982422" y="1528.0041503906" type="line"/>
			<point x="380.0281982422" y="1504.0041503906" type="line"/>
			<point x="375.0281982422" y="836.3349609375" type="line"/>
			<point x="435.1647338867" y="912.2475585938"/>
			<point x="585.9780273438" y="1022.9954833984"/>
			<point x="715.7455444336" y="1022.9954833984" type="qcurve" smooth="yes"/>
			<point x="879.9852294922" y="1022.9954833984"/>
			<point x="1049.5874023438" y="884.1817626953"/>
			<point x="1049.5874023438" y="817.9954833984" type="qcurve" smooth="yes"/>
			<point x="1049.5874023438" y="750.1484375"/>
			<point x="1056.1748046875" y="708.3104248047"/>
			<point x="1056.1748046875" y="708.3104248047" type="qcurve"/>
			<point x="1049.5874023438" y="107.998046875" type="line"/>
			<point x="1193.5842285156" y="80.998046875" type="line"/>
			<point x="1193.5842285156" y="0" type="line"/>
			<point x="740.6264648438" y="0" type="line"/>
			<point x="740.6264648438" y="80.998046875" type="line"/>
			<point x="883.4068603516" y="107.998046875" type="line"/>
			<point x="887.4068603516" y="593.1552124023" type="line"/>
			<point x="887.4068603516" y="684.4802246094" type="line" smooth="yes"/>
			<point x="887.4068603516" y="754.4385375977"/>
			<point x="770.4692993164" y="890.5535888672"/>
			<point x="661.3634643555" y="890.5535888672" type="qcurve" smooth="yes"/>
			<point x="573.0170288086" y="890.5535888672"/>
			<point x="430.4975585938" y="801.5914306641"/>
			<point x="375.0281982422" y="710.0703735352" type="qcurve"/>
			<point x="378.0281982422" y="572.5819091797" type="line"/>
			<point x="382.0281982422" y="107.998046875" type="line"/>
			<point x="530.2414550781" y="79.998046875" type="line"/>
			<point x="530.2414550781" y="0" type="line"/>
		</contour>
	</outline>
	<anchor name="bottom" x="629" y="0"/>
	<anchor name="center" x="347" y="1202"/>
	<anchor name="top" x="304" y="1534"/>
</glyph>
<glyph name="k" format="2">
	<unicode hex="006B"/>
	<advance width="1138"/>
	<outline>
		<contour>
			<point x="75.3366699219" y="0" type="line"/>
			<point x="75.3366699219" y="80.998046875" type="line"/>
			<point x="222.0633544922" y="108.998046875" type="line"/>
			<point x="225.470703125" y="477" type="line"/>
			<point x="215.0633544922" y="1401.1064453125" type="line"/>
			<point x="42.2561035156" y="1437.1064453125" type="line"/>
			<point x="42.2561035156" y="1526.4370117188" type="line"/>
			<point x="373.7622680664" y="1534.0041503906" type="line"/>
			<point x="384.7622680664" y="1528.0041503906" type="line"/>
			<point x="389.7622680664" y="1504.0041503906" type="line"/>
			<point x="385.3549194336" y="526" type="line"/>
			<point x="392.7622680664" y="108.998046875" type="line"/>
			<point x="540.9755249023" y="81.998046875" type="line"/>
			<point x="540.9755249023" y="0" type="line"/>
		</contour>
		<contour>
			<point x="303" y="376" type="line"/>
			<point x="303" y="490" type="line"/>
			<point x="742.6987304688" y="880.3510742188" type="line"/>
			<point x="645.6987304688" y="914.3510742188" type="line"/>
			<point x="645.6987304688" y="1004.8488769531" type="line"/>
			<point x="990.1556396484" y="1004.8488769531" type="line"/>
			<point x="990.1556396484" y="916.3510742188" type="line"/>
			<point x="881.1556396484" y="877.3510742188" type="line"/>
		</contour>
		<contour>
			<point x="426.1118164062" y="578.0338134766" type="line"/>
			<point x="551.0922241211" y="653.0147094727" type="line"/>
			<point x="1030.8099975586" y="103.998046875" type="line"/>
			<point x="1150.538269043" y="81.998046875" type="line"/>
			<point x="1150.538269043" y="0" type="line"/>
			<point x="757.3128051758" y="0" type="line"/>
			<point x="746.1130981445" y="81.1480712891" type="line"/>
			<point x="835.1130981445" y="105.1480712891" type="line"/>
		</contour>
	</outline>
	<anchor name="bottom" x="608" y="0"/>
	<anchor name="top" x="578" y="1534"/>
</glyph>
<glyph name="l" format="2">
	<unicode hex="006C"/>
	<advance width="643"/>
	<outline>
		<contour>
			<point x="83.0350952148" y="0" type="line"/>
			<point x="83.0350952148" y="81.998046875" type="line"/>
			<point x="249.328918457" y="107.998046875" type="line"/>
			<point x="254.7362670898" y="527" type="line"/>
			<point x="243.328918457" y="1389.0329589844" type="line"/>
			<point x="62.9545288086" y="1422.0329589844" type="line"/>
			<point x="62.9545288086" y="1519.9306640625" type="line"/>
			<point x="372.4735107422" y="1534.0041503906" type="line"/>
			<point x="394.8433227539" y="1528.0041503906" type="line"/>
			<point x="417.0278320312" y="1507.0041503906" type="line"/>
			<point x="413.6204833984" y="527" type="line"/>
			<point x="421.0278320312" y="107.998046875" type="line"/>
			<point x="586.8082275391" y="81.998046875" type="line"/>
			<point x="586.8082275391" y="0" type="line"/>
		</contour>
	</outline>
	<anchor name="bottom" x="316" y="0"/>
	<anchor name="center" x="316" y="750"/>
	<anchor name="top" x="316" y="1534"/>
	<anchor name="topright" x="367" y="1000"/>
	<anchor name="centerright" x="746" y="680"/>
	<anchor name="yu_dash" x="321" y="500"/>
	<anchor name="liga" x="632" y="0"/>
</glyph>
<glyph name="m" format="2">
	<unicode hex="006D"/>
	<advance width="1935"/>
	<outline>
		<contour>
			<point x="76.4951782227" y="0" type="line"/>
			<point x="76.4951782227" y="79.998046875" type="line"/>
			<point x="225.4920043945" y="107.998046875" type="line"/>
			<point x="229.8993530273" y="548.1552124023" type="line"/>
			<point x="222.4920043945" y="873.951171875" type="line"/>
			<point x="62.4951782227" y="898.951171875" type="line"/>
			<point x="62.4951782227" y="993.8488769531" type="line"/>
			<point x="345.2291259766" y="1007.8488769531" type="line"/>
			<point x="369.6731567383" y="999.8121337891" type="line"/>
			<point x="388.1909179688" y="851.3305053711" type="line"/>
			<point x="437.7631835938" y="917.0341796875"/>
			<point x="645.8354492188" y="1021.8488769531"/>
			<point x="749.4195556641" y="1021.8488769531" type="qcurve" smooth="yes"/>
			<point x="878.8201293945" y="1021.8488769531"/>
			<point x="1044.0515136719" y="931.7011108398"/>
			<point x="1055.4634399414" y="846.5900878906" type="qcurve"/>
			<point x="1098.3492431641" y="922.0341796875"/>
			<point x="1317.4852905273" y="1021.8488769531"/>
			<point x="1427.76171875" y="1021.8488769531" type="qcurve" smooth="yes"/>
			<point x="1595.3833007812" y="1021.8488769531"/>
			<point x="1745.7457885742" y="923.8488769531"/>
			<point x="1745.7457885742" y="824.8488769531" type="qcurve" smooth="yes"/>
			<point x="1745.7457885742" y="759.5687866211"/>
			<point x="1740.8007202148" y="639.5819091797"/>
			<point x="1740.2274169922" y="617.1552124023" type="qcurve" smooth="yes"/>
			<point x="1745.7457885742" y="107.998046875" type="line"/>
			<point x="1890.7426147461" y="79.998046875" type="line"/>
			<point x="1890.7426147461" y="0" type="line"/>
			<point x="1434.673828125" y="0" type="line"/>
			<point x="1434.673828125" y="79.998046875" type="line"/>
			<point x="1577.4542236328" y="107.998046875" type="line"/>
			<point x="1584.7133789062" y="593.1552124023" type="line"/>
			<point x="1586.4794311523" y="686.0368652344" type="line" smooth="yes"/>
			<point x="1587.1858520508" y="797.0368652344"/>
			<point x="1469.7109985352" y="883.0368652344"/>
			<point x="1375.8473510742" y="883.0368652344" type="qcurve" smooth="yes"/>
			<point x="1280.3198852539" y="883.0368652344"/>
			<point x="1100.3317260742" y="799.0919189453"/>
			<point x="1064.6702880859" y="726.0873413086" type="qcurve"/>
			<point x="1061.4427490234" y="708.7567749023"/>
			<point x="1060.4599609375" y="681.5819091797"/>
			<point x="1060.4599609375" y="620.1552124023" type="qcurve" smooth="yes"/>
			<point x="1067.9042358398" y="107.998046875" type="line"/>
			<point x="1206.9010620117" y="79.998046875" type="line"/>
			<point x="1206.9010620117" y="0" type="line"/>
			<point x="756.8322753906" y="0" type="line"/>
			<point x="756.8322753906" y="79.998046875" type="line"/>
			<point x="899.6126708984" y="107.998046875" type="line"/>
			<point x="903.0200195312" y="592.1552124023" type="line"/>
			<point x="901.0200195312" y="685.0368652344" type="line" smooth="yes"/>
			<point x="900.0200195312" y="795.0368652344"/>
			<point x="783.5623779297" y="881.0368652344"/>
			<point x="694.6328735352" y="881.0368652344" type="qcurve" smooth="yes"/>
			<point x="606.6093139648" y="881.0368652344"/>
			<point x="429.9432983398" y="789.5598144531"/>
			<point x="386.0798950195" y="717.4359741211" type="qcurve"/>
			<point x="389.3762207031" y="576.1552124023" type="line"/>
			<point x="393.7835693359" y="107.998046875" type="line"/>
			<point x="541.9968261719" y="79.998046875" type="line"/>
			<point x="541.9968261719" y="0" type="line"/>
		</contour>
	</outline>
	<anchor name="bottom" x="958" y="0"/>
	<anchor name="top" x="958" y="1000"/>
</glyph>
<glyph name="n" format="2">
	<unicode hex="006E"/>
	<advance width="1238"/>
	<outline>
		<contour>
			<point x="76" y="0" type="line"/>
			<point x="76" y="81" type="line"/>
			<point x="225" y="116" type="line"/>
			<point x="229" y="572" type="line"/>
			<point x="222" y="853" type="line"/>
			<point x="63" y="885" type="line"/>
			<point x="63" y="973" type="line"/>
			<point x="351" y="1008" type="line"/>
			<point x="371" y="1007" type="line"/>
			<point x="388" y="836" type="line"/>
			<point x="416" y="906"/>
			<point x="614" y="1022"/>
			<point x="731" y="1022" type="qcurve" smooth="yes"/>
			<point x="881" y="1022"/>
			<point x="1049" y="909"/>
			<point x="1049" y="818" type="qcurve" smooth="yes"/>
			<point x="1049" y="762"/>
			<point x="1043" y="692"/>
			<point x="1044" y="618" type="qcurve" smooth="yes"/>
			<point x="1050" y="116" type="line"/>
			<point x="1193" y="81" type="line"/>
			<point x="1193" y="0" type="line"/>
			<point x="738" y="0" type="line"/>
			<point x="738" y="81" type="line"/>
			<point x="880" y="116" type="line"/>
			<point x="885" y="603" type="line"/>
			<point x="885" y="721" type="line" smooth="yes"/>
			<point x="885" y="821"/>
			<point x="777" y="894"/>
			<point x="674" y="894" type="qcurve" smooth="yes"/>
			<point x="576" y="894"/>
			<point x="416" y="780"/>
			<point x="388" y="710" type="qcurve"/>
			<point x="389" y="575" type="line"/>
			<point x="395" y="116" type="line"/>
			<point x="543" y="81" type="line"/>
			<point x="543" y="0" type="line"/>
		</contour>
	</outline>
	<anchor name="bottom" x="632" y="0"/>
	<anchor name="top" x="632" y="1000"/>
	<anchor name="liga" x="1264" y="0"/>
</glyph>
<glyph name="q" format="2">
	<unicode hex="0071"/>
	<advance width="1177"/>
	<outline>
		<contour>
			<point x="67.4656982422" y="499.9977416992" type="qcurve" smooth="yes"/>
			<point x="67.4656982422" y="771.2099609375"/>
			<point x="351.0923461914" y="1026.5819091797"/>
			<point x="534.8068847656" y="1026.5819091797" type="qcurve" smooth="yes"/>
			<point x="623.6887817383" y="1026.5819091797"/>
			<point x="797.3949584961" y="956.9954833984"/>
			<point x="824.3817749023" y="919.1289672852" type="qcurve"/>
			<point x="827.3817749023" y="1014.5819091797" type="line"/>
			<point x="1173.2173461914" y="1000.5819091797" type="line"/>
			<point x="1173.2173461914" y="905.5341796875" type="line"/>
			<point x="1000.8421630859" y="895.5341796875" type="line"/>
			<point x="1000.8421630859" y="511.411315918" type="line"/>
			<point x="1000.8421630859" y="-371.9970703125" type="line"/>
			<point x="1174.3524169922" y="-399.9970703125" type="line"/>
			<point x="1174.3524169922" y="-479.9951171875" type="line"/>
			<point x="635.9095458984" y="-479.9951171875" type="line"/>
			<point x="635.9095458984" y="-399.9970703125" type="line"/>
			<point x="833.3652954102" y="-371.9970703125" type="line"/>
			<point x="835.3652954102" y="97.0393676758" type="line"/>
			<point x="807.9849853516" y="66.8796386719"/>
			<point x="656.1724243164" y="-11"/>
			<point x="516.4530639648" y="-11" type="qcurve" smooth="yes"/>
			<point x="335.510559082" y="-11"/>
			<point x="67.4656982422" y="231.9321289062"/>
		</contour>
		<contour>
			<point x="235.1646118164" y="510.2909545898" type="qcurve" smooth="yes"/>
			<point x="235.1646118164" y="314.9022827148"/>
			<point x="397.1774291992" y="107.0716552734"/>
			<point x="565.4707641602" y="107.0716552734" type="qcurve" smooth="yes"/>
			<point x="652.2973022461" y="107.0716552734"/>
			<point x="796.3817749023" y="155.7858276367"/>
			<point x="835.3652954102" y="206.0563964844" type="qcurve"/>
			<point x="840.3652954102" y="796.8749389648" type="line"/>
			<point x="811.3817749023" y="846.5900878906"/>
			<point x="670.0064086914" y="922.1765136719"/>
			<point x="578.8922729492" y="922.1765136719" type="qcurve" smooth="yes"/>
			<point x="424.0106811523" y="922.1765136719"/>
			<point x="235.1646118164" y="670.3456420898"/>
		</contour>
	</outline>
	<anchor name="bottom" x="594" y="0"/>
	<anchor name="top" x="594" y="1000"/>
</glyph>
<glyph name="s" format="2">
	<unicode hex="0073"/>
	<advance width="945"/>
	<outline>
		<contour>
			<point x="64.3553981585" y="15.2954101562" type="line"/>
			<point x="66.3553981585" y="285.4091796875" type="line"/>
			<point x="169.4694118303" y="285.4091796875" type="line"/>
			<point x="193.4322414202" y="224" type="line" smooth="yes"/>
			<point x="219.3276725839" y="137.2216796875"/>
			<point x="350.2815300058" y="100.2939453125"/>
			<point x="483.6631828378" y="99.2939453125" type="qcurve" smooth="yes"/>
			<point x="597.7825065683" y="98.2939453125"/>
			<point x="737.4825187753" y="222.5374755859"/>
			<point x="737.0544181894" y="284.5999755859" type="qcurve" smooth="yes"/>
			<point x="736.6263176034" y="352.4564208984"/>
			<point x="582.0707145761" y="415.7962646484"/>
			<point x="405.0431877206" y="460.8454589844" type="qcurve" smooth="yes"/>
			<point x="217.7278190683" y="508.481628418"/>
			<point x="83.9858757089" y="643.9896240234"/>
			<point x="84.8354396624" y="758.4568481445" type="qcurve" smooth="yes"/>
			<point x="85.6982780526" y="870.0524902344"/>
			<point x="276.6035514901" y="1026.8488769531"/>
			<point x="451.2422233651" y="1026.8488769531" type="qcurve" smooth="yes"/>
			<point x="580.3952385019" y="1026.8488769531"/>
			<point x="683.888646705" y="966.6635742188"/>
			<point x="719.2781730722" y="935.2562255859" type="qcurve"/>
			<point x="747.241002662" y="1003.5534667969" type="line"/>
			<point x="835.169530494" y="1003.5534667969" type="line"/>
			<point x="835.169530494" y="721.4396972656" type="line"/>
			<point x="732.8333488534" y="721.4396972656" type="line"/>
			<point x="707.60153733" y="806.8488769531" type="line" smooth="yes"/>
			<point x="691.9751945565" y="884.0717773438"/>
			<point x="583.603124244" y="917.3326416016"/>
			<point x="486.3337150644" y="917.3326416016" type="qcurve" smooth="yes"/>
			<point x="395.1893669198" y="917.3326416016"/>
			<point x="233.0229850839" y="834.9724121094"/>
			<point x="233.0229850839" y="782.3514404297" type="qcurve" smooth="yes"/>
			<point x="233.0229850839" y="715.4746704102"/>
			<point x="335.3782253069" y="641.8313598633"/>
			<point x="522.3846339983" y="598.6042480469" type="qcurve" smooth="yes"/>
			<point x="648.5764064592" y="585.5029296875"/>
			<point x="887.9759269784" y="441.8186035156"/>
			<point x="887.9759269784" y="279.6461791992" type="qcurve" smooth="yes"/>
			<point x="887.9759269784" y="146.2930908203"/>
			<point x="674.940221412" y="-11"/>
			<point x="516.9334465097" y="-11" type="qcurve" smooth="yes"/>
			<point x="377.9496208261" y="-11"/>
			<point x="237.80075608" y="67.4073486328"/>
			<point x="196.4687404436" y="103.5926513672" type="qcurve"/>
			<point x="150.5802516741" y="15.2954101562" type="line"/>
		</contour>
	</outline>
	<anchor name="bottom" x="468" y="0"/>
	<anchor name="top" x="416" y="1000"/>
</glyph>
<glyph name="t" format="2">
	<unicode hex="0074"/>
	<advance width="554"/>
	<outline>
		<contour>
			<point x="34.5922851562" y="874.5743408203" type="line"/>
			<point x="34.5922851562" y="945.4249267578" type="line"/>
			<point x="121.5922851562" y="955.4249267578"/>
			<point x="245.3201293945" y="1081.5294189453"/>
			<point x="288.1413574219" y="1200" type="qcurve"/>
			<point x="294.1413574219" y="1200" type="line"/>
			<point x="301.1413574219" y="1165" type="line"/>
			<point x="297.1413574219" y="989.6833496094" type="line"/>
			<point x="534.6067504883" y="989.6833496094" type="line"/>
			<point x="534.6067504883" y="883.2779541016" type="line"/>
			<point x="340.0654907227" y="883.2779541016" type="line"/>
			<point x="342.0654907227" y="546.9429931641" type="line"/>
			<point x="342.0654907227" y="233.5909423828" type="line" smooth="yes"/>
			<point x="342.0654907227" y="155.5909423828"/>
			<point x="369.0654907227" y="106.5909423828"/>
			<point x="424.6067504883" y="103.5909423828" type="qcurve" smooth="yes"/>
			<point x="529.6067504883" y="92.5909423828" type="line"/>
			<point x="529.6067504883" y="18" type="line"/>
			<point x="251.9592285156" y="-8" type="line"/>
			<point x="219.9592285156" y="-7"/>
			<point x="178.9592285156" y="46"/>
			<point x="178.9592285156" y="91" type="qcurve" smooth="yes"/>
			<point x="178.9592285156" y="546.9429931641" type="line"/>
			<point x="176.9592285156" y="877.5743408203" type="line"/>
		</contour>
	</outline>
	<anchor name="bottom" x="322" y="0"/>
	<anchor name="center" x="312" y="622"/>
	<anchor name="top" x="322" y="1179"/>
	<anchor name="topright" x="540" y="1000"/>
</glyph>
<glyph name="u" format="2">
	<unicode hex="0075"/>
	<advance width="1242"/>
	<outline>
		<contour>
			<point x="35.3111572266" y="896.2181396484" type="line"/>
			<point x="35.3111572266" y="988.1158447266" type="line"/>
			<point x="344.4885253906" y="1002.1158447266" type="line"/>
			<point x="356.4885253906" y="1001.1158447266" type="line"/>
			<point x="356.4885253906" y="974.1158447266" type="line"/>
			<point x="359.4885253906" y="471.5339355469" type="line"/>
			<point x="361.4885253906" y="374.2198486328" type="line" smooth="yes"/>
			<point x="362.4885253906" y="224.2198486328"/>
			<point x="492.7499389648" y="124.2198486328"/>
			<point x="581.7086181641" y="124.2198486328" type="qcurve" smooth="yes"/>
			<point x="673.3140869141" y="124.2198486328"/>
			<point x="817.9929199219" y="213.2198486328"/>
			<point x="851.3598632812" y="280.2198486328" type="qcurve"/>
			<point x="851.3598632812" y="451.5339355469" type="line"/>
			<point x="849.3598632812" y="876.2181396484" type="line"/>
			<point x="698.1466064453" y="896.2181396484" type="line"/>
			<point x="698.1466064453" y="988.1158447266" type="line"/>
			<point x="1001.6514282227" y="1002.1158447266" type="line"/>
			<point x="1011.6514282227" y="996.1158447266" type="line"/>
			<point x="1015.6514282227" y="969.1158447266" type="line"/>
			<point x="1013.6514282227" y="451.5339355469" type="line"/>
			<point x="1015.6514282227" y="111.3979492188" type="line"/>
			<point x="1188.6482543945" y="88.3979492188" type="line"/>
			<point x="1188.6482543945" y="8" type="line"/>
			<point x="863.3598632812" y="0" type="line"/>
			<point x="853.3598632812" y="15" type="line"/>
			<point x="853.3598632812" y="154" type="line"/>
			<point x="810.0048217773" y="88"/>
			<point x="620.2211303711" y="-7"/>
			<point x="512.9467773438" y="-7" type="qcurve" smooth="yes"/>
			<point x="357.1612548828" y="-7"/>
			<point x="198.3079833984" y="150.7689208984"/>
			<point x="198.3079833984" y="227" type="qcurve" smooth="yes"/>
			<point x="198.3079833984" y="296.9868774414"/>
			<point x="199.7346801758" y="413.6805419922"/>
			<point x="200.3079833984" y="451.5339355469" type="qcurve" smooth="yes"/>
			<point x="195.3079833984" y="868.2181396484" type="line"/>
		</contour>
	</outline>
	<anchor name="bottom" x="622" y="0"/>
	<anchor name="ogonek" x="1030" y="20"/>
	<anchor name="top" x="622" y="1000"/>
	<anchor name="topright" x="1005" y="1000"/>
	<anchor name="cy_descender" x="1178" y="80"/>
</glyph>
<glyph name="v" format="2">
	<unicode hex="0076"/>
	<advance width="971"/>
	<outline>
		<contour>
			<point x="-37.8861694336" y="914.3510742188" type="line"/>
			<point x="-37.8861694336" y="1004.8488769531" type="line"/>
			<point x="416.0481567383" y="1004.8488769531" type="line"/>
			<point x="416.0481567383" y="914.3510742188" type="line"/>
			<point x="268.0773925781" y="891.3510742188" type="line"/>
			<point x="394.4967651367" y="577.7559814453" type="line"/>
			<point x="500.0557861328" y="215.1350097656" type="line"/>
			<point x="515.9408569336" y="151.7577514648" type="line"/>
			<point x="515.9408569336" y="151.7577514648" type="line"/>
			<point x="533.8688964844" y="215.1350097656" type="line"/>
			<point x="649.3264770508" y="592.5210571289" type="line"/>
			<point x="773.4995117188" y="884.3510742188" type="line"/>
			<point x="621.0153198242" y="914.3510742188" type="line"/>
			<point x="621.0153198242" y="1004.8488769531" type="line"/>
			<point x="1045.7229614258" y="1004.8488769531" type="line"/>
			<point x="1045.7229614258" y="914.3510742188" type="line"/>
			<point x="886.2932739258" y="884.3510742188" type="line"/>
			<point x="741.0469360352" y="539.633972168" type="line"/>
			<point x="539.8615722656" y="-5" type="line"/>
			<point x="478.0363769531" y="-5" type="line"/>
			<point x="272.6318969727" y="506.7639160156" type="line"/>
			<point x="109.1928100586" y="890.3510742188" type="line"/>
		</contour>
	</outline>
	<anchor name="bottom" x="513" y="0"/>
	<anchor name="top" x="513" y="1000"/>
</glyph>
<glyph name="w" format="2">
	<unicode hex="0077"/>
	<advance width="1495"/>
	<outline>
		<contour>
			<point x="428.6163330078" y="-5" type="line"/>
			<point x="251.0874633789" y="486.2092895508" type="line"/>
			<point x="83.6747436523" y="891.3510742188" type="line"/>
			<point x="-51.4042358398" y="913.3510742188" type="line"/>
			<point x="-51.4042358398" y="1004.8488769531" type="line"/>
			<point x="415.8088378906" y="1004.8488769531" type="line"/>
			<point x="415.8088378906" y="913.3510742188" type="line"/>
			<point x="289.8380737305" y="891.3510742188" type="line"/>
			<point x="390.8743286133" y="524.755065918" type="line"/>
			<point x="483" y="294" type="line"/>
			<point x="521" y="180" type="line"/>
			<point x="531" y="180" type="line"/>
			<point x="568" y="294" type="line"/>
			<point x="569.9612426758" y="437.4220581055" type="line"/>
			<point x="725" y="747" type="line"/>
			<point x="640.1772460938" y="892.3510742188" type="line"/>
			<point x="545.8818359375" y="913.3510742188" type="line"/>
			<point x="545.8818359375" y="1004.8488769531" type="line"/>
			<point x="941.1430664062" y="1004.8488769531" type="line"/>
			<point x="941.1430664062" y="913.3510742188" type="line"/>
			<point x="818.1723022461" y="893.3510742188" type="line"/>
			<point x="959.4550170898" y="432.8219604492" type="line"/>
			<point x="1045" y="294" type="line"/>
			<point x="1082" y="180" type="line"/>
			<point x="1092" y="180" type="line"/>
			<point x="1128" y="294" type="line"/>
			<point x="1131.400390625" y="522.8860473633" type="line"/>
			<point x="1237.3057861328" y="883.3510742188" type="line"/>
			<point x="1085.8215942383" y="913.3510742188" type="line"/>
			<point x="1085.8215942383" y="1004.8488769531" type="line"/>
			<point x="1533.6369628906" y="1004.8488769531" type="line"/>
			<point x="1533.6369628906" y="913.3510742188" type="line"/>
			<point x="1374.2072753906" y="884.3510742188" type="line"/>
			<point x="1308" y="496" type="line"/>
			<point x="1067.497253418" y="-5" type="line"/>
			<point x="991.3213500977" y="-5" type="line"/>
			<point x="830" y="480" type="line"/>
			<point x="790" y="595" type="line"/>
			<point x="780" y="595" type="line"/>
			<point x="741" y="480" type="line"/>
			<point x="519.7546386719" y="-5" type="line"/>
		</contour>
	</outline>
	<anchor name="bottom" x="787" y="0"/>
	<anchor name="top" x="787" y="1000"/>
</glyph>
<glyph name="x" format="2">
	<unicode hex="0078"/>
	<advance width="964"/>
	<outline>
		<contour>
			<point x="-38.0247192383" y="0" type="line"/>
			<point x="-38.0247192383" y="80.998046875" type="line"/>
			<point x="120.8378295898" y="105.998046875" type="line"/>
			<point x="444" y="480" type="line"/>
			<point x="83.0995483398" y="890.3510742188" type="line"/>
			<point x="-55.1958618164" y="915.3510742188" type="line"/>
			<point x="-55.1958618164" y="1004.8488769531" type="line"/>
			<point x="392.9113769531" y="1004.8488769531" type="line"/>
			<point x="392.9113769531" y="915.3510742188" type="line"/>
			<point x="254.7241821289" y="893.3510742188" type="line"/>
			<point x="454" y="701" type="line"/>
			<point x="527" y="602" type="line"/>
			<point x="537" y="602" type="line"/>
			<point x="603" y="701" type="line"/>
			<point x="604.9877319336" y="884.3510742188" type="line"/>
			<point x="448.5035400391" y="915.3510742188" type="line"/>
			<point x="448.5035400391" y="1004.8488769531" type="line"/>
			<point x="890.6564331055" y="1004.8488769531" type="line"/>
			<point x="890.6564331055" y="915.3510742188" type="line"/>
			<point x="736.5774536133" y="885.3510742188" type="line"/>
			<point x="594" y="524" type="line"/>
			<point x="842.7962646484" y="107.998046875" type="line"/>
			<point x="1000.2536010742" y="80.998046875" type="line"/>
			<point x="1000.2536010742" y="0" type="line"/>
			<point x="529.9844360352" y="0" type="line"/>
			<point x="529.9844360352" y="80.998046875" type="line"/>
			<point x="671.1716308594" y="102.998046875" type="line"/>
			<point x="584" y="305" type="line"/>
			<point x="511" y="402" type="line"/>
			<point x="501" y="402" type="line"/>
			<point x="439" y="305" type="line"/>
			<point x="252.4275512695" y="106.998046875" type="line"/>
			<point x="413.1281738281" y="80.998046875" type="line"/>
			<point x="413.1281738281" y="0" type="line"/>
		</contour>
	</outline>
	<anchor name="bottom" x="522" y="0"/>
	<anchor name="top" x="522" y="1000"/>
	<anchor name="cy_descender" x="1043" y="80"/>
</glyph>
<glyph name="y" format="2">
	<unicode hex="0079"/>
	<advance width="824"/>
	<outline>
		<contour>
			<point x="-80.0699462891" y="914.3510742188" type="line"/>
			<point x="-79.0699462891" y="1004.8488769531" type="line"/>
			<point x="390.2710571289" y="1004.8488769531" type="line"/>
			<point x="390.2710571289" y="914.3510742188" type="line"/>
			<point x="243.3002929688" y="891.3510742188" type="line"/>
			<point x="395.1356811523" y="550.039855957" type="line"/>
			<point x="527.9001464844" y="212.9380493164" type="line"/>
			<point x="554.5358276367" y="143.8925170898" type="line"/>
			<point x="554.5358276367" y="143.8925170898" type="line"/>
			<point x="580.4626464844" y="213.3215942383" type="line"/>
			<point x="688.8145751953" y="528.6091918945" type="line"/>
			<point x="837.6221923828" y="881.3510742188" type="line"/>
			<point x="683.1380004883" y="914.3510742188" type="line"/>
			<point x="683.1380004883" y="1004.8488769531" type="line"/>
			<point x="1127.2158813477" y="1004.8488769531" type="line"/>
			<point x="1127.2158813477" y="914.3510742188" type="line"/>
			<point x="969.7861938477" y="882.3510742188" type="line"/>
			<point x="787.0532836914" y="479.5710449219" type="line"/>
			<point x="506.774597168" y="-114.0864257812" type="line" smooth="yes"/>
			<point x="434.9731445312" y="-330.6059570312"/>
			<point x="320.4049682617" y="-488.423828125"/>
			<point x="248.3343505859" y="-488.423828125" type="qcurve"/>
			<point x="88.4484863281" y="-425.4985351562" type="line"/>
			<point x="88.4484863281" y="-339.5003662109" type="line"/>
			<point x="191.057434082" y="-339.5003662109" type="line" smooth="yes"/>
			<point x="215.0823364258" y="-339.5003662109"/>
			<point x="353.3053588867" y="-206.3951416016"/>
			<point x="392.7045898438" y="-142.9033203125" type="qcurve" smooth="yes"/>
			<point x="478.1370849609" y="21.9722900391" type="line"/>
			<point x="498.5069580078" y="21.9722900391" type="line"/>
			<point x="262.0229492188" y="487.1849365234" type="line"/>
			<point x="67.0090332031" y="890.3510742188" type="line"/>
		</contour>
	</outline>
	<anchor name="bottom" x="782" y="0"/>
	<anchor name="top" x="524" y="1000"/>
</glyph>
<glyph name="z" format="2">
	<unicode hex="007A"/>
	<advance width="860"/>
	<outline>
		<contour>
			<point x="35.0585327148" y="0" type="line"/>
			<point x="35.0585327148" y="81.072265625" type="line"/>
			<point x="603.4391479492" y="891.9254150391" type="line"/>
			<point x="201.26953125" y="891.9254150391" type="line"/>
			<point x="161.7875976562" y="754.7351074219" type="line"/>
			<point x="54.7846679688" y="754.7351074219" type="line"/>
			<point x="54.7846679688" y="1004.8488769531" type="line"/>
			<point x="836.078125" y="1004.8488769531" type="line"/>
			<point x="836.078125" y="927.1838378906" type="line"/>
			<point x="251.8399047852" y="114.9234619141" type="line"/>
			<point x="692.4587402344" y="114.9234619141" type="line"/>
			<point x="725.9406738281" y="244.1137695312" type="line"/>
			<point x="828.9436035156" y="244.1137695312" type="line"/>
			<point x="828.9436035156" y="0" type="line"/>
		</contour>
	</outline>
	<anchor name="bottom" x="443" y="0"/>
	<anchor name="top" x="443" y="1000"/>
	<anchor name="_liga" x="0" y="0"/>
</glyph>
<glyph name="idotless" format="2">
	<unicode hex="0131"/>
	<advance width="619"/>
	<outline>
		<contour>
			<point x="74.7445678711" y="0" type="line"/>
			<point x="74.7445678711" y="82.998046875" type="line"/>
			<point x="242.3085327148" y="107.998046875" type="line"/>
			<point x="245.7158813477" y="477" type="line"/>
			<point x="233.7901611328" y="862.8776855469" type="line"/>
			<point x="63.7445678711" y="889.8776855469" type="line"/>
			<point x="63.7445678711" y="973.2082519531" type="line"/>
			<point x="346.934753418" y="1010.8488769531" type="line"/>
			<point x="376.8596801758" y="1010.8488769531" type="line"/>
			<point x="412.5258178711" y="960.6276245117" type="line"/>
			<point x="404.6000976562" y="477" type="line"/>
			<point x="412.0074462891" y="107.998046875" type="line"/>
			<point x="577.5714111328" y="82.998046875" type="line"/>
			<point x="577.5714111328" y="0" type="line"/>
		</contour>
	</outline>
	<anchor name="bottom" x="320" y="0"/>
	<anchor name="top" x="320" y="1000"/>
	<anchor name="ogonek" x="513" y="0"/>
	<anchor name="liga" x="639" y="0"/>
</glyph>
